<svg width="36" height="36" viewBox="0 0 36 36" fill="none" xmlns="http://www.w3.org/2000/svg">
<path d="M35 9.30664H1V34.9999H35V9.30664Z" fill="#E2E2E2"/>
<path d="M35 9.53879H1V6.87287C1 5.59787 2.04318 4.55469 3.31818 4.55469H32.6818C33.9568 4.55469 35 5.59787 35 6.87287V9.53879Z" fill="#AFAFAF"/>
<path d="M18 31.6002C23.2065 31.6002 27.4273 27.3794 27.4273 22.1729C27.4273 16.9663 23.2065 12.7456 18 12.7456C12.7935 12.7456 8.57272 16.9663 8.57272 22.1729C8.57272 27.3794 12.7935 31.6002 18 31.6002Z" fill="white"/>
<path d="M25.2636 21.4001H18.0386V23.0229H25.2636V21.4001Z" fill="black"/>
<path d="M23.1773 23.5639C23.9241 23.5639 24.5295 22.9585 24.5295 22.2117C24.5295 21.4648 23.9241 20.8594 23.1773 20.8594C22.4304 20.8594 21.825 21.4648 21.825 22.2117C21.825 22.9585 22.4304 23.5639 23.1773 23.5639Z" fill="black"/>
<path d="M7.33634 8.10911C5.36589 8.10911 3.7818 6.52501 3.7818 4.55455C3.7818 2.58409 5.36589 1 7.33634 1C9.3068 1 10.8909 2.58409 10.8909 4.55455H9.34543C9.34543 3.4341 8.4568 2.54546 7.33634 2.54546C6.21589 2.54546 5.32725 3.4341 5.32725 4.55455C5.32725 5.67501 6.21589 6.56365 7.33634 6.56365V8.10911Z" fill="black"/>
<path d="M14.4454 8.10911C12.475 8.10911 10.8909 6.52501 10.8909 4.55455C10.8909 2.58409 12.475 1 14.4454 1C16.4159 1 18 2.58409 18 4.55455H16.4545C16.4545 3.4341 15.5659 2.54546 14.4454 2.54546C13.325 2.54546 12.4364 3.4341 12.4364 4.55455C12.4364 5.67501 13.325 6.56365 14.4454 6.56365V8.10911Z" fill="black"/>
<path d="M21.5545 8.10911C19.5841 8.10911 18 6.52501 18 4.55455C18 2.58409 19.5841 1 21.5545 1C23.525 1 25.1091 2.58409 25.1091 4.55455H23.5636C23.5636 3.4341 22.675 2.54546 21.5545 2.54546C20.4341 2.54546 19.5455 3.4341 19.5455 4.55455C19.5455 5.67501 20.4341 6.56365 21.5545 6.56365V8.10911Z" fill="black"/>
<path d="M28.6636 8.10911C26.6932 8.10911 25.1091 6.52501 25.1091 4.55455C25.1091 2.58409 26.7318 1 28.6636 1C30.5955 1 32.2182 2.58409 32.2182 4.55455H30.6727C30.6727 3.4341 29.7841 2.54546 28.6636 2.54546C27.5432 2.54546 26.6546 3.4341 26.6546 4.55455C26.6546 5.67501 27.5432 6.56365 28.6636 6.56365V8.10911Z" fill="black"/>
<path d="M15.2182 26.0365L14.2523 25.032L17.3432 21.9411V15.0251H18.7341V22.5206L15.2182 26.0365Z" fill="#AFAFAF"/>
</svg>
