<svg width="36" height="36" viewBox="0 0 36 36" fill="none" xmlns="http://www.w3.org/2000/svg">
<path d="M32.5659 10.7937H3.62727V31.9999H32.5659V10.7937Z" fill="#E2E2E2"/>
<path d="M10.7363 4H5.86815V11.6971H10.7363V4Z" fill="#E2E2E2"/>
<path d="M20.4341 4H15.5659V11.6971H20.4341V4Z" fill="#E2E2E2"/>
<path d="M30.1704 4H25.3023V11.6971H30.1704V4Z" fill="#E2E2E2"/>
<path d="M5.86817 11.697C5.86817 13.0715 4.78635 14.1711 3.43408 14.1711C2.0818 14.1711 0.999985 13.0715 0.999985 11.697" fill="black"/>
<path d="M15.5659 11.697C15.5659 13.0715 14.4841 14.1711 13.1318 14.1711C11.7795 14.1711 10.6977 13.0715 10.6977 11.697" fill="black"/>
<path d="M25.2636 11.697C25.2636 13.0715 24.1818 14.1711 22.8295 14.1711C21.4772 14.1711 20.3954 13.0715 20.3954 11.697" fill="black"/>
<path d="M34.9613 11.697C34.9613 13.0715 33.8795 14.1711 32.5272 14.1711C31.175 14.1711 30.0932 13.0715 30.0932 11.697" fill="black"/>
<path d="M28.7023 21.0041C28.7023 18.6086 26.8091 16.6843 24.4523 16.6843C22.0954 16.6843 20.2023 18.6086 20.2023 21.0041" fill="black"/>
<path d="M5.86817 11.6971H0.999985L5.86817 4V11.6971Z" fill="#AFAFAF"/>
<path d="M15.5659 4H10.6977V11.6971H15.5659V4Z" fill="#AFAFAF"/>
<path d="M25.3022 4H20.4341V11.6971H25.3022V4Z" fill="#AFAFAF"/>
<path d="M35 11.6971H30.1318V4L35 11.6971Z" fill="#AFAFAF"/>
<path d="M10.6977 11.697C10.6977 13.0715 9.61591 14.1711 8.26363 14.1711C6.91136 14.1711 5.82954 13.0715 5.82954 11.697" fill="#AFAFAF"/>
<path d="M20.3954 11.697C20.3954 13.0715 19.3136 14.1711 17.9613 14.1711C16.6091 14.1711 15.5272 13.0715 15.5272 11.697" fill="#AFAFAF"/>
<path d="M30.1318 11.697C30.1318 13.0715 29.05 14.1711 27.6977 14.1711C26.3454 14.1711 25.2636 13.0715 25.2636 11.697" fill="#AFAFAF"/>
<path d="M17.1886 24.5383H7.25905V27.2873H17.1886V24.5383Z" fill="#AFAFAF"/>
<path d="M20.1636 21.0042V31.9999H28.7023V21.0042" fill="#AFAFAF"/>
<path d="M17.1886 18.1765H7.25905V24.5384H17.1886V18.1765Z" fill="white"/>
</svg>
