<svg width="36" height="36" viewBox="0 0 36 36" fill="none" xmlns="http://www.w3.org/2000/svg">
<path d="M35 20.8158H1V27.9591H35V20.8158Z" fill="black"/>
<path d="M6.525 30H1.77273C1.34773 30 1 29.6598 1 29.2441V27.0142H7.29773V29.2441C7.29773 29.6598 6.95 30 6.525 30Z" fill="black"/>
<path d="M34.2273 30H29.475C29.05 30 28.7023 29.6598 28.7023 29.2441V27.0142H35V29.2441C35 29.6598 34.6523 30 34.2273 30Z" fill="black"/>
<path d="M35 18.5858V24.2173L33.9955 25.8047C33.6477 26.3339 33.0295 26.674 32.3727 26.674H3.62727C2.97045 26.674 2.35227 26.3339 2.00455 25.8047L1 24.2173V18.5858C1 17.7165 1.23182 16.8472 1.73409 16.0913L3.78182 12.8787L6.98864 7.81417C7.22045 7.36063 7.56818 7.02047 7.95455 6.75591C8.61136 6.26457 9.42273 6 10.2727 6H25.8045C26.6545 6 27.4659 6.26457 28.1227 6.75591C28.5091 7.02047 28.8182 7.39843 29.0886 7.77638L32.2955 12.8409L34.3432 16.0535C34.7295 16.8472 35 17.7165 35 18.5858Z" fill="#AFAFAF"/>
<path d="M4.05175 10.7245H1.54039C1.19266 10.7245 0.960841 11.0268 1.03811 11.367C1.26993 12.2363 2.0813 12.8788 3.00857 12.8788H4.70857L4.97902 11.8206C5.0563 11.2536 4.6313 10.7245 4.05175 10.7245Z" fill="#AFAFAF"/>
<path d="M31.9477 10.7245H34.4591C34.8068 10.7245 35.0386 11.0268 34.9614 11.367C34.7296 12.2363 33.9182 12.8788 32.9909 12.8788H31.2909L31.0205 11.8206C30.9432 11.2536 31.3682 10.7245 31.9477 10.7245Z" fill="#AFAFAF"/>
<path d="M3.66588 18.3591V17.83H11.6636L13.2477 20.5512L4.47724 19.304C4.01361 19.2284 3.66588 18.8126 3.66588 18.3591Z" fill="white"/>
<path d="M32.3341 18.3591V17.83H24.2977L22.7136 20.5512L31.5227 19.304C31.9863 19.2284 32.3341 18.8126 32.3341 18.3591Z" fill="white"/>
<path d="M8.5341 23.0457H27.4273C27.9682 23.0457 28.3159 23.6504 28.0455 24.1039L25.7659 27.959H10.1955L7.91591 24.1039C7.64546 23.6126 7.99319 23.0457 8.5341 23.0457Z" fill="black"/>
<path d="M32.2568 12.8788H3.74316L6.94998 7.81425C7.22044 7.36071 7.56816 7.02055 7.95453 6.75598H28.0454C28.4318 7.02055 28.7409 7.3985 29.0113 7.77645L32.2568 12.8788Z" fill="black"/>
<path d="M11.7023 17.83L13.2864 20.5512H22.7136L24.2977 17.83H11.7023Z" fill="black"/>
<path d="M21.4387 26.5606H14.5614C14.2909 26.5606 14.0977 26.3339 14.0977 26.1071V24.8976C14.0977 24.6331 14.3296 24.4441 14.5614 24.4441H21.4773C21.7477 24.4441 21.9409 24.6709 21.9409 24.8976V26.0693C21.9409 26.3339 21.7091 26.5606 21.4387 26.5606Z" fill="#E2E2E2"/>
</svg>
